<svg version="1" xmlns="http://www.w3.org/2000/svg" width="933.333" height="933.333" viewBox="0 0 700.000000 700.000000"><path d="M330 48.1c-60.1 3.2-118 25.6-166.2 64.1-13.5 10.8-34.1 31.5-45.1 45.3-37.6 47-60.1 102.8-65.8 162.7-1.7 18.4-.7 56.5 2 73.8 12.5 81.3 55.8 152.7 121.1 200.1 14.8 10.8 27 18 45.5 27 79.8 38.6 173.6 38.1 253-1.3 31.2-15.6 53.1-31.3 78.1-56.2 24.1-24 42-48.9 56.9-79.1 21.9-44.2 31.7-86.2 31.7-136 0-47-9.5-89.7-29.2-131.2-15-31.6-33.7-57.9-59-83.4-59.2-59.6-139.2-90.4-223-85.8zm-74.4 192.3c17.6 8.7 31.7 29.2 37.6 54.7 1.8 7.6 2.2 12.6 2.2 25.9 0 14.7-.3 17.7-2.7 27.4-6.5 25.9-19.5 44.4-37.6 53.4-7.2 3.6-7.9 3.7-18 3.7-8.7 0-11.6-.5-16.3-2.3-19.8-7.9-35.2-30-41.4-59.2-2.6-12.3-2.4-35.3.4-47.6 6.8-30.1 22.5-51.1 43.7-58.7 3.8-1.3 7.3-1.7 14.6-1.4 8.8.2 10.3.6 17.5 4.1zm193.5-2.4c21.5 6.6 38.6 30.3 44.5 61.6 2.1 11.5 2.1 31.2 0 42.5-6.1 32.2-23.9 56.4-46 62.4-31.5 8.5-61.6-19.5-69.1-64.4-4.3-25.7 1.3-57.1 13.6-76.1 4.9-7.6 12.9-16.2 18.8-20.3 10.8-7.4 25.6-9.6 38.2-5.7z"/><path d="M236.2 288.9c6.3 7.4 7.1 16.2 2.2 24.8-5.2 9.1-16.7 11.6-24.7 5.3-1.4-1.1-2.8-2-3.2-2-.4 0-.5 7.5-.3 16.7.3 18.8 1.2 21.6 7.8 26 3 2.1 4.4 2.3 17 2.3s14-.2 17-2.3c1.8-1.2 4.3-3.5 5.4-5 2-2.7 2.1-4 2.1-31.2 0-27.1-.1-28.5-2.1-31.1-4.2-5.6-6.9-6.9-16.1-7.3l-8.6-.3 3.5 4.1zM434.3 287c3.8 3 6.7 9.8 6.7 15.6-.1 16-15.7 25.2-28 16.4l-3.1-2.2.3 17.5c.3 19.5.7 20.6 7.8 25.4 3 2.1 4.4 2.3 17 2.3s14-.2 17-2.3c1.9-1.2 4.3-3.8 5.4-5.7 2-3.3 2.1-5.1 2.1-30.5 0-26.1-.1-27.1-2.2-30.5-3.5-5.7-8.7-8-17.8-8h-7.8l2.6 2z"/></svg>