<svg xmlns="http://www.w3.org/2000/svg" height="2421.689" width="3663.442"><g transform="translate(-229.151 -2230.407)"><path d="M1588.571 3611.429s-74.285-154.286-114.285-302.858c-40-148.571-78.327-315.959-49.755-447.387-5.488-752.986 969.73-770.68 1101.183-186.898 51.429 274.285-11.428 560-51.428 634.285-40 74.286-93.736 248.656-145.165 294.37" fill="none" stroke="#000" stroke-width="18"/><path d="M2200 3680c131.429-68.571 240-177.143 331.429-74.286 91.428 102.857 22.857 268.572 205.714 405.715C2920 4148.57 2960 4308.57 3188.57 4257.143c228.572-51.429 325.715-80 434.286 11.428 108.572 91.429 160 188.572 171.429 217.143 11.428 28.572-68.572 80-125.715 5.715C3611.43 4417.143 3560 4240 3440 4268.57c-120 28.572-388.571 165.715-537.143 160-148.571-5.714-342.857-57.142-434.286-171.428C2377.143 4142.857 2234.286 3920 2142.857 3880c-91.428-40-205.714-68.571-308.571 45.714-102.857 114.286-188.572 348.572-331.429 377.143-142.857 28.572-428.571 91.429-491.428-34.286-62.858-125.714-148.572-325.714-257.143-365.714-108.572-40-285.715-62.857-297.143-22.857-11.429 40 68.571-171.429 177.143-165.714 108.571 5.714 194.285 11.428 257.143 120 62.857 108.571 125.714 314.285 205.714 291.428 80-22.857 188.571-97.143 234.286-222.857C1377.143 3777.143 1525.714 3640 1640 3594.286" fill="none" stroke="#000" stroke-width="18" stroke-linejoin="round"/><path d="M452.548 3883.026c141.422-4.04 173.747 125.26 173.747 125.26s230.314 448.507 286.883 501.035c56.568 52.528 145.462 165.665 391.94 125.259 246.476-40.406 347.492-40.406 432.344-149.503 84.853-109.096 141.422-226.274 234.356-262.64 92.934-36.365 202.03 52.529 323.249 157.584 121.218 105.056 347.492 254.559 557.604 234.356 210.112-20.203 347.492-4.04 468.71-113.137 121.219-109.097 234.356-163.645 282.843-119.198" fill="none" stroke="#000" stroke-width="18"/><path d="M2525.381 3600.184c153.544-32.325 307.087-8.082 391.94 145.462 84.852 153.543 72.73 266.68 197.99 262.64 125.258-4.041 222.233-20.204 323.248-121.219 101.016-101.015 177.787-145.462 254.559-68.69 76.771 76.771 181.827 185.868 185.868 250.517 4.04 64.65 24.243 137.381-24.244 92.935-48.487-44.447-117.178-181.828-206.071-161.625-88.893 20.203-125.259 92.934-258.6 141.421-133.34 48.488-375.776 149.503-480.832 32.325M1543.513 3523.412s-113.137-4.04-185.868 76.772c-72.731 80.812-137.38 238.396-218.193 206.07-80.812-32.324-149.503-52.527-282.843-234.355-133.34-181.827-222.233-157.583-311.127-92.934-88.893 64.65-109.096 88.894-121.218 129.3-12.122 40.406 169.706-8.081 189.909-24.244 20.203-16.162 155.563 90.914 167.685 155.564" fill="none" stroke="#000" stroke-width="12"/><path d="M1486.945 3361.788c-121.219 0-193.95 44.446-226.275 84.852-32.325 40.407-105.056 169.706-145.462 169.706-40.406 0-76.771 40.406-149.502-4.04-72.731-44.447-173.746-161.625-242.437-173.747-68.69-12.122-323.249-48.487-404.06 12.122-80.813 60.61-84.854 109.097-84.854 109.097s101.016 80.812 145.462 44.446c44.447-36.365 187.889-129.3 151.523-117.177M2468.813 3305.22c64.65-96.975 133.34-141.422 202.03-153.544 68.69-12.122 177.787 32.325 254.559-12.122 76.771-44.447 193.95-133.34 214.152-294.964 20.203-161.625 16.163-250.518 0-315.168-16.162-64.65-28.284-185.868 76.772-242.437 105.056-56.568 214.152-60.609 274.761-40.406 60.61 20.203 113.137 133.34 117.178 181.828 4.04 48.487-48.487 101.015-101.015 125.259-52.528 24.243-117.178 36.365-121.219-24.244-4.04-60.61-8.08-92.934 28.285-80.812s52.528 16.162 60.609 44.446" fill="none" stroke="#000" stroke-width="10"/><path d="M2844.59 3652.712c173.746-72.731 230.314-105.056 331.33-230.315 101.015-125.26 206.07-311.127 214.152-404.061 8.081-92.934-12.122-145.462-44.447-246.477-32.325-101.016-84.853-183.848-52.528-248.498 32.325-64.65 84.853-105.056 101.015-72.73" fill="none" stroke="#000" stroke-width="10"/><path d="M3287.036 2533.463c-32.325 117.177-34.345 214.152-54.548 343.451-20.203 129.3-72.73 351.533-141.421 416.183-68.69 64.65-286.883 258.6-355.574 278.802-68.69 20.203-113.137 16.163-113.137 16.163" fill="none" stroke="#000" stroke-width="10"/><ellipse cx="2156.874" cy="2972.671" rx="84.853" ry="109.096" stroke="#000" stroke-width="8"/><ellipse ry="109.096" rx="84.853" cy="2973.889" cx="1749.584" stroke="#000" stroke-width="8"/><ellipse ry="64.65" rx="66.67" cy="3491.087" cx="3008.234" fill="none" stroke="#000" stroke-width="10"/><ellipse ry="62.629" rx="64.65" cy="3351.686" cx="3147.635" fill="none" stroke="#000" stroke-width="10"/><ellipse ry="74.751" rx="66.67" cy="3169.859" cx="3246.63" fill="none" stroke="#000" stroke-width="10"/><ellipse ry="94.954" rx="72.731" cy="2935.503" cx="3317.341" fill="none" stroke="#000" stroke-width="10"/><ellipse transform="rotate(22.62)" ry="60.609" rx="40.406" cy="1694.57" cx="2509.53" fill="#5c3c7e" fill-opacity=".78"/><ellipse cx="2526.235" cy="1907.148" rx="30.843" ry="44.188" transform="matrix(.93155 .36362 -.4064 .9137 0 0)" fill="#5c3c7e" fill-opacity=".78"/><path d="M1848.512 3154.1c-30 21.429-40 35.714-35.714 51.429 4.285 15.714 40 55.714 62.857 45.714s61.428-37.143 61.428-37.143 44.286-11.428 80 18.572c35.715 30 72.857-18.572 75.715-30 2.857-11.43 1.428-44.286-7.143-55.715" fill="none" stroke="#000" stroke-width="12"/><ellipse cx="748.571" cy="4021.428" rx="87.403" ry="113.709" fill="none" stroke="#000" stroke-width="8" stroke-linejoin="round"/><ellipse ry="91.429" rx="92.857" cy="4328.571" cx="921.429" fill="none" stroke="#000" stroke-width="8" stroke-linejoin="round"/><ellipse ry="129.286" rx="118.571" cy="4491.429" cx="1324.286" fill="none" stroke="#000" stroke-width="8" stroke-linejoin="round"/><ellipse ry="105.714" rx="111.071" cy="4294.286" cx="1718.571" fill="none" stroke="#000" stroke-width="8" stroke-linejoin="round"/><ellipse ry="105.714" rx="104.286" cy="4054.286" cx="2027.143" fill="none" stroke="#000" stroke-width="8" stroke-linejoin="round"/><ellipse ry="89.286" rx="88.571" cx="2308.572" cy="4220" fill="none" stroke="#000" stroke-width="8" stroke-linejoin="round"/><ellipse ry="94.643" rx="87.143" cy="4458.571" cx="2584.286" fill="none" stroke="#000" stroke-width="8" stroke-linejoin="round"/><ellipse ry="85.714" rx="97.143" cy="4521.429" cx="2962.857" fill="none" stroke="#000" stroke-width="8" stroke-linejoin="round"/><ellipse ry="77.143" rx="75.714" cy="4422.857" cx="3295.714" fill="none" stroke="#000" stroke-width="8" stroke-linejoin="round"/></g><g fill="#5c3c7e" fill-opacity=".941" stroke="#000" stroke-width="16.162" stroke-linejoin="round"><path d="M3488.46 2286.007c-5.642-2.018-14.845-7.037-20.452-11.153-18.012-13.222-28.45-28.277-66.146-95.4-55.216-98.318-85.9-132.818-132.354-148.808-35.862-12.344-67.895-5.164-197.077 44.176-192.582 73.556-258.487 95.025-331.33 107.936-101.809 18.045-281.185-17.768-388.433-77.551-63.505-35.4-85.713-57.334-162.105-160.108-129.07-173.646-171.373-225.553-215.863-264.874-34.603-30.583-55.842-42.222-107.982-59.177-38.261-12.442-68.633-17.107-102.434-15.732-51.894 2.11-90.038 16.702-132.504 50.69-37.274 29.834-64.564 65.205-131.698 170.694-67.198 105.59-95.915 144.431-133.096 180.018-40.693 38.95-61.655 49.034-130.76 62.905-192.243 38.588-301.005 43.79-376.556 18.008-20.906-7.134-36.261-16.284-50.154-29.884-9.778-9.572-14.831-18.602-52.573-93.944-72.015-143.76-104.669-196.836-151.014-245.465-32.064-33.644-55.158-48.384-97.643-62.325-71.416-23.433-166.2-38.988-224.002-36.761-13.82.532-25.127.4-25.127-.296 0-.695 5.563-9.874 12.362-20.398 40.085-62.044 81.69-98.367 119.076-103.955 10.832-1.619 67.497 2.018 96.856 6.216 58.282 8.333 95.7 25.394 128.532 58.604 21.223 21.467 36.769 46.337 64.912 103.843 84.891 173.463 92.836 187.602 121.565 216.334 27.412 27.416 47.097 32.585 80.97 21.263 55.554-18.57 118.024-61.017 158.488-107.691 30.752-35.471 51.172-69.825 70.805-119.114 16.712-41.955 37.751-77.198 70.46-118.026 55.638-69.448 133.42-134.234 203.304-169.334 12.778-6.419 24.556-12.11 26.173-12.646 2.517-.835 2.42-2.339-.672-10.434-1.986-5.202-4.006-9.458-4.488-9.458-.482 0-9.664 4.106-20.405 9.126-10.741 5.02-20.144 8.428-20.895 7.576-6.618-7.515-62.419-144.607-81.427-200.052-40.039-116.786-74.632-264.967-85.25-365.163-4.19-39.54-4.202-109.973-.024-137.38 1.694-11.113 4.424-42.478 6.066-69.701 1.642-27.224 4.415-60.408 6.162-73.742 30.222-230.62 168.574-397.07 381.841-459.388 21.249-6.209 57.432-13.59 86.873-17.722 39.907-5.6 114.724-5.067 156.574 1.116 219.358 32.41 385.014 169.862 441.585 366.405 25.933 90.097 34.154 251.275 19.862 389.402-4.396 42.489-12.168 93.04-20.324 132.198-11.878 57.027-29.939 116.246-38.946 127.696-2.297 2.921-4.177 6.418-4.177 7.77 0 1.354-4.457 11.913-9.903 23.467-5.447 11.553-22.173 50.553-37.17 86.666-45.06 108.51-61.017 140.748-84.617 170.957-8.961 11.47-13.71 14.777-65.759 45.807-30.855 18.395-59.509 35.046-63.676 37.004-4.166 1.957-7.576 4.336-7.576 5.285 0 .95 1.864 5.38 4.142 9.845l4.141 8.118 13.537-7.49c7.444-4.12 36.719-21.31 65.053-38.202 60.958-36.338 84.291-49.019 105.864-57.536 43.578-17.206 79.3-16.623 107.948 1.76 13.769 8.835 34.272 30.882 45.295 48.706 17.217 27.839 23.53 48.075 46.011 147.482 11.057 48.894 19.398 74.05 35.167 106.066 26.106 53.005 55 87.152 110.243 130.286 38.006 29.676 60.629 50.29 124.25 113.214 35.557 35.169 71.2 69.49 79.205 76.269 45.462 38.495 93.163 59.798 146.017 65.213 39.499 4.046 68.003.363 164.56-21.264 167.457-37.507 219.548-42.594 279.028-27.25 19.902 5.134 52.183 20.596 69.61 33.34 51.943 37.987 111.16 101.343 151.81 162.418 17.37 26.099 38.1 64.15 38.1 69.937 0 5.285-12.136 16.569-22.714 21.12-14.413 6.2-32.032 7.171-45.122 2.488zM1659.727 1022.16c7.103-3.703 21.871-12.534 32.817-19.625 17.992-11.655 21.092-12.968 32.317-13.682 7.485-.477 17.56.526 25.364 2.526 12.382 3.172 17.024 5.532 38.896 19.776 14.618 9.518 27.962 10.045 44.778 1.766 13.944-6.864 28.351-21.003 34.408-33.767 2.92-6.152 3.374-11.243 2.575-28.869-.89-19.668-5.494-38.66-9.339-38.526-.712.025-3.526 1.758-6.25 3.853-4.577 3.517-4.749 4.248-2.248 9.552 1.49 3.158 3.1 14.834 3.578 25.946l.87 20.203-7.784 10.101c-9.586 12.44-26.81 23.234-37.075 23.234-5.487 0-11.38-2.634-22.93-10.25-23.071-15.21-34.115-18.635-60.776-18.845l-22.224-.175-13.132 8.998c-24.316 16.66-49.17 30.373-55.05 30.373-7.678 0-16.198-4.62-27.322-14.818-14.476-13.272-20.663-22.94-20.663-32.287 0-7.49 1.253-9.333 16.341-24.021 16.206-15.776 16.315-15.95 13.063-20.913-2.856-4.358-3.855-4.696-7.755-2.617-7.631 4.067-29.277 25.98-32.617 33.02-7.796 16.427-2.157 33.28 17.944 53.629 22.648 22.927 39.7 27.153 62.214 15.418zm-107.484-172.446c63.572-30.218 78.1-136.366 26.404-192.93-40.773-44.613-105.181-32.353-133.674 25.445-10.98 22.274-14.705 41.12-13.411 67.86 2.05 42.381 19.308 76.634 47.834 94.94 14.893 9.556 24.882 12.192 43.552 11.493 13.157-.493 18.74-1.79 29.295-6.808zm400.457 2.049c24.561-7.707 46.17-32.551 58.521-67.283 5.792-16.287 7.19-53.31 2.764-73.204-7.483-33.638-27.918-62.268-53.38-74.793-12.465-6.13-14.866-6.6-33.656-6.577-18.795.023-21.097.48-32.356 6.42-30.489 16.088-50.76 48.745-55.268 89.032-4.657 41.63 7.541 80.963 33.008 106.43 22.44 22.44 50.381 29.384 80.367 19.975zm-596.463-380.504c17.713-9.037 31.996-36.44 29.588-56.769-2.43-20.527-12.086-29.174-30.839-27.619-36.706 3.044-58.73 66.832-29.366 85.055 7.29 4.525 21.027 4.225 30.617-.667zm86.015-115.23c32.912-15.932 51.809-71.953 34.33-101.777-18.166-30.998-60.568-17.983-80.609 24.744-5.395 11.5-6.44 16.33-7.082 32.687-.702 17.931-.374 19.908 4.988 30.073 3.795 7.196 8.123 12.156 12.778 14.647 9.425 5.044 24.736 4.883 35.595-.374z"/><path d="M844.435 1884.695c-32.993-12.161-61.242-54.099-118.658-176.155-47.986-102.009-64.33-130.613-90.884-159.046-17.45-18.685-36.11-32.736-57.938-43.628-9.11-4.546-17.292-8.268-18.183-8.272-.891 0-3.238-3.942-5.215-8.751-7.48-18.193-24.954-41.05-52.951-69.267-40.423-40.738-80.075-69.004-102.744-73.239-8.251-1.541-10.944-1.067-21.05 3.708-45.988 21.727-147.898 42.508-169.042 34.47-7.082-2.693-6.606-6.84 2.988-26.007 10.942-21.861 31.436-43.365 62.984-66.086 13.646-9.828 29.356-22.121 34.912-27.319 12.285-11.491 39.25-29.989 56.2-38.55 23.894-12.07 39.019-16.221 62.998-17.289 33.094-1.473 54.475 5.076 86.705 26.555 34.723 23.141 63.799 53.089 107.384 110.606 43.402 57.274 70.592 89.533 101.886 120.88 52.352 52.443 89.905 77.226 160.843 106.148 44.555 18.165 64.718 17.358 94.339-3.78 24.377-17.395 47.086-44.796 95.727-115.508 56.776-82.537 77.937-104.341 123.291-127.038 28.512-14.268 68.485-24.805 98.304-25.914l15.91-.591 17.932 40.402c9.862 22.22 17.703 40.977 17.424 41.68-.278.702-11.416 8.58-24.75 17.507-13.334 8.927-34.244 24.21-46.467 33.962-28.71 22.906-88.705 82.732-110.206 109.895-32.015 40.447-58.412 85.35-73.657 125.3-20.132 52.756-47.206 93.101-89.785 133.799-35.237 33.68-72.202 57.655-114.394 74.194-24.444 9.582-33.637 11.117-43.903 7.334zM2785.72 1988.447c-16.926-2.648-40.42-9.343-50.322-14.34-13.245-6.682-26.039-18.346-98.342-89.656-66.252-65.342-85.452-82.804-122.229-111.166-51.12-39.423-86.927-83.447-109.398-134.508-12.256-27.849-20.72-57.155-34.06-117.942-16.44-74.907-26.647-103.666-47.916-135.011-4.393-6.475-7.67-12.091-7.28-12.48 2.104-2.104 51.224-7.469 77.436-8.458 93.288-3.52 171.63 22.856 228.902 77.07 44.816 42.421 70.226 87.294 119.472 210.982 34.293 86.13 53.448 111.621 94.545 125.815 12.657 4.372 16.74 4.712 55.086 4.594 125.14-.383 211.508-27.322 287.894-89.795 7.778-6.361 28.378-25.198 45.777-41.858 48.245-46.197 75.173-66.982 105.746-81.62 41.565-19.9 72.93-18.094 107.51 6.19 14.255 10.01 81.382 78 114.823 116.297 44.444 50.899 74.537 95.414 84.675 125.259 1.92 5.652 5.553 31.092 8.247 57.756 4.509 44.623 4.718 62.452.734 62.452-5.763 0-27.79-23.284-59.335-62.72-55.877-69.852-85.109-96.555-118.918-108.633-17.59-6.284-40.083-6.899-59.955-1.64-21.39 5.66-59.239 25.692-89.903 47.58-80.3 57.32-111.592 74.082-195.97 104.979-101.06 37.005-168.137 56.937-225.264 66.936-28.352 4.963-91.22 7.162-111.956 3.917zM2291.584 1351.069c-23.874-19.333-45.827-27.223-75.681-27.2-19.951.016-42.333 4.594-63.565 13.003-7.137 2.827-13.293 4.824-13.678 4.438-.386-.385 5.179-11.971 12.366-25.745 16.087-30.828 25.193-51.291 56.1-126.06 13.321-32.224 31.346-73.59 40.056-91.924 8.71-18.334 17.79-38.335 20.177-44.447 5.275-13.504 10.296-20.28 31.257-42.183 53.373-55.773 112.507-85.096 171.606-85.096 12.407 0 39.791 1.74 60.855 3.866 58.793 5.935 76.921 6.73 99.626 4.37 39.763-4.133 58.08-11.318 99.691-39.107 42.127-28.132 74.034-55.996 100.892-88.105 48.5-57.984 73.55-114.244 84.476-189.728 11.24-77.656 16.77-184.479 12.412-239.809-2.435-30.92-6.054-53.915-15.262-96.974-19.274-90.13 2.221-166.151 58.217-205.894 29.677-21.063 88.22-44.869 133.972-54.477 63.142-13.26 129.472-10.827 163.89 6.012 33.286 16.286 74.703 75.248 95.654 136.177 5.69 16.546 6.61 21.98 6.694 39.487.094 19.533-.193 20.89-7.601 35.886-9.828 19.894-35.732 47.607-58.924 63.038-32.02 21.306-70.996 35.505-98.032 35.714-17 .132-24.685-2.213-32.878-10.028-8.238-7.86-11.18-20.93-12.725-56.51-1.157-26.65-.863-33.065 1.804-39.408 4.231-10.06 7.55-10.308 31.677-2.365 25.428 8.37 34.591 14.4 40.406 26.589 4.493 9.416 5.609 10.459 10.098 9.432 6.813-1.559 6.808-1.544 4.002-10.046-3.188-9.659-14.652-22.274-25.074-27.59-13.551-6.914-41.76-15.718-50.36-15.718-4.51 0-9.604-1.407-11.586-3.202-11.853-10.727-37.542-1.692-60.302 21.21-15.952 16.05-30.762 37.253-43.164 61.794-16.07 31.8-27.183 88.893-44.855 230.438-13.288 106.437-18.735 142.313-30.498 200.897-24.672 122.867-61.215 237.42-93.133 291.95-18.996 32.452-36.443 50.272-124.971 127.643-129.35 113.049-221.087 181.204-261.524 194.296-27.683 8.964-52.418 12.664-96.958 14.505-25.001 1.034-57.73 3.708-72.731 5.942-15 2.234-28.183 4.032-29.294 3.994-1.112-.037-7.021-4.117-13.132-9.065z"/></g><g stroke="#000" stroke-linejoin="round"><path d="M891.512 1560.506c-102.223-41.207-154.805-86.589-257.416-222.162-29.078-38.42-61.323-75.393-76.702-87.95-5.255-4.292-9.121-8.237-8.591-8.767 2.095-2.096 36.174 24.802 90.171 71.17 48.496 41.645 63.5 53.633 85.68 68.463 42.772 28.597 74.454 33.571 122.428 19.221 11.658-3.487 27.317-7.126 34.796-8.088 18.478-2.375 28.147-7.8 46.135-25.89 18.214-18.317 36.348-42.107 72.547-95.176 14.78-21.668 31.063-44.74 36.185-51.272 19.475-24.833 59.412-50.655 98.706-63.82 31.481-10.547 75.459-18.21 104.564-18.219h12.122l11.795 34.838c6.488 19.16 18.554 52.015 26.814 73.01 8.26 20.995 14.587 38.604 14.059 39.132-.528.528-8.503 1.725-17.723 2.66-61.772 6.264-117.003 30.668-155.088 68.528-17.96 17.853-36.649 42.12-70.795 91.924-46.029 67.135-67.497 93.196-90.004 109.257-26.785 19.113-38.885 19.59-79.683 3.145zM91.88 1371.257c-8.11-2.762-20.893-8.119-28.408-11.903-18.936-9.536-50.793-31.143-50.793-34.45 0-5.088 8.194-21.887 17.508-35.898 16.633-25.019 57.162-62.114 80.836-73.988 12.669-6.354 40.243-13.82 65.776-17.81 17.84-2.787 35.64-3.567 82.358-3.609 52.863-.047 131.044 3.926 128.442 6.528-.517.517-7.864 3.95-16.327 7.629-8.463 3.679-21.629 10.396-29.256 14.928-16.974 10.084-81.396 58.237-98.012 73.26-6.667 6.028-23.486 19.044-37.375 28.925-13.89 9.88-34.09 24.616-44.889 32.745-10.799 8.13-21.995 15.678-24.88 16.775-9.418 3.58-29.35 2.193-44.98-3.132z" fill="#5d3c7b" stroke-width="16.162"/><path d="M537.558 1235.317c-3.978-3.113-11.138-8.265-15.596-11.223-1.633-1.083-2.918-2.021-2.855-2.084.317-.317 13.242 6.724 20.397 11.11l3.715 2.277-.937 1.35c-.515.741-.993 1.346-1.062 1.343-.07 0-1.718-1.251-3.662-2.773z" fill="#aa70b5" stroke-width="2.02"/><path d="M2603.294 1406.993c-25.441-18.627-61.526-35.309-95.964-44.366-12.223-3.214-24.496-5.916-27.274-6.005-2.778-.088 3.131-2.385 13.132-5.103 40.032-10.882 83.361-38.286 168.695-106.693 67.734-54.298 184.385-156.59 210.565-184.643 44.781-47.987 90.392-173.42 123.569-339.822 11.47-57.533 16.769-92.755 30.39-202.03 11.181-89.69 20.896-152.045 23.443-150.47.782.482 2.013 4.58 2.737 9.104 2.097 13.114 12.441 43.892 31.555 93.889 18.824 49.239 51.727 147.93 49.921 149.737-.59.59-4.75-1.591-9.245-4.847-11.153-8.079-23.468-11.143-41.07-10.219-26.526 1.393-47.357 16.59-61.142 44.603-21.846 44.394-15.42 99.322 15.461 132.158 28.697 30.514 70.374 31.12 98.964 1.441 5.207-5.405 11.852-13.919 14.767-18.92l5.3-9.09-1.325 19.192c-2.294 33.213-9.986 62.438-28.207 107.172-10.074 24.732-31.463 70.287-36.129 76.948-3.006 4.292-3.129 3.58-1.974-11.485 2.676-34.886-12.684-65.822-40.084-80.735-8.55-4.653-13.861-5.968-26.846-6.644-18.9-.985-28.841 1.274-41.813 9.5-27.436 17.4-41.849 57.025-33.138 91.112 8.935 34.967 33.628 56.698 66.203 58.26 19.262.924 32.188-3.008 46.14-14.036 5.533-4.374 10.06-7.5 10.06-6.948 0 2.422-32.867 55.78-55.235 89.675l-24.45 37.046-2.165-12.803c-1.192-7.041-3.919-16.44-6.062-20.884-5.32-11.035-20.102-25.408-32.296-31.4-8.782-4.317-12.874-4.965-31.315-4.965-17.932 0-22.643.704-30.457 4.555-15.023 7.403-25.36 17.665-32.593 32.358-5.846 11.875-6.65 15.47-6.649 29.714 0 26.985 11.9 46.875 35.788 59.827 12.272 6.655 13.448 6.886 35.068 6.886h22.37l-13.28 16.072c-32.529 39.376-86.556 93.93-82.119 82.923 6.956-17.258 6.178-40.303-1.92-56.855-2.92-5.967-9.99-14.98-16.208-20.663-14.536-13.286-28.357-18.447-49.401-18.447-21.044 0-34.865 5.161-49.401 18.447-28.712 26.24-30.918 69.138-5.013 97.483 13.84 15.143 27.556 21.658 48.951 23.249l16.575 1.232-16.163 9.345c-32.4 18.732-136.44 67.635-155.563 73.12-2.756.791-7.576-1.428-15.153-6.975z" fill="#aa70b5" stroke-width="16.162"/><path d="M3074.159 990.872c-.54-.286-.982-.585-.982-.664 0-.079.947-1.56 2.106-3.293 2.735-4.09 5.738-9.786 7.715-14.635.867-2.128 1.704-3.86 1.86-3.85.155.012.741.215 1.301.452.75.317.957.595.787 1.051-.29.776-11.264 20.89-11.577 21.219-.125.132-.67.01-1.21-.28z" fill="#aa70b5" stroke-width="2.857"/><path d="M556.802 2053.884c-40.074-72.44-93.84-172.192-93.84-174.1 0-.676 5.685 3.11 12.632 8.413 30.844 23.544 75.546 18.19 102.272-12.248 26.79-30.513 36.864-85.834 23.33-128.117-5.584-17.442 45.917 55.702 75.92 107.828 20.443 35.515 88.703 170.33 88.703 175.19 0 1.4-4.756-1.63-10.569-6.735-18.159-15.944-33.26-21.085-62.288-21.205-21.866-.091-28.085 1.005-41.559 7.325-21.873 10.26-34.467 22.145-45.6 43.033-7.83 14.691-9.785 22.024-11.166 41.896l-1.675 24.087zM417.913 1793.518c-8.053-16.893-16.63-35.67-19.06-41.727-7.56-18.84-29.734-49.537-47.202-65.344-19.933-18.039-46.723-31.965-75.103-39.041l-20.729-5.168 20.754-2.154c29.913-3.105 88.398 2.642 143.64 14.113 32.303 6.708 85.606 21.832 85.606 24.289 0 1.196-3.535 2.894-7.857 3.773-13.308 2.709-33.901 18.52-44.527 34.187-15.595 22.994-20.473 41.357-20.473 77.073 0 16.894-.091 30.715-.204 30.714-.112 0-6.792-13.822-14.845-30.715zM916.204 2398.23c-51.593-7.533-105.753-29.115-146.099-58.216-30.43-21.95-78.162-66.367-94.092-87.558-13.298-17.69-53.05-80.455-53.05-83.761 0-1.031 4.82 1.992 10.714 6.718 16.028 12.854 33.22 18.226 59.345 18.542 20.402.247 24.994-.745 41.836-9.036 42.003-20.678 62.626-63.841 52.842-110.594l-2.372-11.335 14.682 13.734c61.204 57.248 193.367 61.817 430.1 14.868 82.208-16.304 104.481-26.037 144.019-62.938 13.047-12.177 15.129-13.31 13.378-7.28-8.886 30.612-9.677 51.184-2.864 74.482 9.36 32.011 29.09 54.448 61.01 69.386 16.308 7.631 21.758 8.73 42.992 8.667 31.357-.093 51.29-7.578 72.982-27.402 20.27-18.526 29.016-33.67 34.425-59.615 10.796-51.775-13.576-101.082-61.088-123.59-17.468-8.276-21.522-9.054-46.287-8.887-21.616.146-29.99 1.47-41.12 6.5-7.686 3.475-14.3 5.964-14.697 5.532-.397-.433 7.595-12.358 17.76-26.5 10.165-14.144 34.016-50.144 53.003-80 95.803-150.652 126.471-186.415 183.625-214.125 33.606-16.294 50.746-20.182 87.143-19.77 42.49.482 89.865 12.328 135.338 33.84 36.163 17.108 79.133 58.717 143.16 138.626 36.002 44.932 87.216 112.724 87.216 115.448 0 .704-7.921-2.805-17.603-7.798-15.762-8.13-20.17-9.079-42.143-9.079-20.544 0-27.098 1.216-40.254 7.465-32.314 15.351-51.534 43.92-53.604 79.678-1.757 30.356-1.556 54.925 20.227 76.384 19.84 19.544 45.544 22.103 74.806 21.986 36.057-.144 65.72-18.886 81.896-51.744 7.96-16.168 9.137-21.458 9.005-40.47-.083-12.029-1.642-25.584-3.464-30.124-1.821-4.54-2.878-8.687-2.348-9.216.53-.53 15.673 18.61 33.651 42.533 48.77 64.897 81.328 95.239 134.957 125.774l22.269 12.679-14.804 1.964c-30.271 4.015-57.107 24.125-70.85 53.091-6.32 13.321-7.455 19.632-7.455 41.435 0 21.938 1.091 27.926 7.42 40.714 4.081 8.247 6.99 14.994 6.464 14.994-2.108 0-66.6-38.936-85.433-51.58-37.66-25.282-88.347-64.513-139.88-108.264-114.908-97.558-176.128-136.052-234.754-147.608-58.022-11.436-108.17 8.737-163.044 65.59-29.065 30.113-43.276 48.51-103.186 133.57-50.972 72.372-71.281 97.212-95.536 116.852-35.724 28.928-87.618 49.966-157.765 63.957-35.789 7.138-140.806 24.626-147.881 24.626-1.895 0 1.674-3.391 7.932-7.535 43.904-29.077 66.076-79.187 58.542-132.307-9.588-67.606-67.095-116.134-131.25-110.756-62.98 5.28-109.421 54.657-113.734 120.922-2.584 39.7 8.752 72.299 35.002 100.652 17.038 18.403 35.904 29.862 58.83 35.733 14.508 3.715 14.91 4.05 6.844 5.706-35.963 7.378-120.286 9.767-156.758 4.44zm921.937-471.186c18.796-7.032 44.314-28.911 55.012-47.166 3.921-6.69 9.083-21.534 11.47-32.986 10.796-51.775-13.575-101.082-61.087-123.59-17.44-8.263-21.561-9.057-46.288-8.923-23.071.125-29.594 1.274-43.485 7.662-61.31 28.192-83.877 105.607-47.464 162.826 14.898 23.412 42 42.235 69.106 47.997 17.184 3.653 44.089 1.157 62.736-5.82zM2534.39 2372.494c-11.785-1.334-33.887-5.067-49.116-8.297-47.632-10.1-128.956-37.907-119.455-40.845 2.358-.728 9.627-2.772 16.155-4.54 26.674-7.228 53.761-34.246 61.415-61.258 3.933-13.878 4.7-38.952 1.64-53.555-1.18-5.628-6.534-17.521-11.898-26.429-5.363-8.907-8.785-16.195-7.604-16.195 1.182 0 11.695 3.26 23.363 7.245 51.351 17.538 134.583 33.893 188.358 37.012 16.5.957 34.302 2.4 39.56 3.208l9.56 1.468-12.527 7.944c-17.229 10.926-32.627 29.739-38.285 46.774-11.546 34.762 3.446 76.332 34.672 96.135l12.23 7.756-43.319 3.384c-48.087 3.757-72.855 3.803-104.748.193zM2810.683 2349.427c31.897-32.779 33.335-78.349 3.611-114.41-9.444-11.456-44.56-30.65-56.716-31-4.11-.118 12.187-5.2 36.216-11.294 58.444-14.822 133.413-40.238 250.597-84.959 105.699-40.337 150.603-55.654 177.218-60.45 39.309-7.082 76.54 13.832 114.04 64.06l10.666 14.287-25.248 1.762c-41.44 2.893-94.128 26.234-150.294 66.583-12.204 8.767-22.87 15.94-23.7 15.94-.832 0-.697-4.345.299-9.655 2.558-13.636-5.682-43.148-15.944-57.102-44.605-60.653-138.89-33.05-144.88 42.416-1.654 20.828 2.066 35.762 13.334 53.53 10.708 16.883 27.208 27.875 50.74 33.799l18.406 4.633-22.319 14.63c-55.59 36.442-125.938 58.056-210.89 64.794-12.571.997-26.071 2.48-30 3.294-6.483 1.344-6.034.342 4.864-10.858z" fill="#aa70b5" stroke-width="22.857"/><path d="M437.355 1834.779c-1.866-3.48-3.393-6.643-3.393-7.028 0-.385.563-.813 1.25-.952 1.011-.204 1.696 1.107 3.579 6.846 1.28 3.903 2.244 7.179 2.142 7.279-.102.1-1.712-2.665-3.578-6.145zM454.791 1867.984c-1.216-2.669-.986-3.066.6-1.038 1.508 1.929 1.778 2.857.829 2.857-.33 0-.973-.818-1.429-1.819zM601.892 2136.938c-3.344-5.882-3.913-7.849-2.27-7.849.316 0 1.147 1.527 1.847 3.393.7 1.866 2.051 4.951 3.002 6.857 2.981 5.968 1.279 4.384-2.579-2.401zM611.836 2154.034c-1.651-2.78-2.868-5.189-2.704-5.353.32-.32 6.973 9.161 6.973 9.94 0 1.588-1.66-.197-4.269-4.587z" fill="#aa70b5" stroke-width="5.714"/><path d="M1089.875 2391.625l-.17-.893 5.396.039 5.397.039-4.643.832c-5.89 1.055-5.775 1.055-5.98-.017zM1132.64 2384.703c2.75-.949 5.26-1.838 5.577-1.975.443-.192.63.016.806.899.127.631.189 1.175.138 1.207-.182.119-10.462 1.626-10.984 1.61-.295-.01 1.714-.792 4.464-1.74zM1394.564 2008.484c-.508-.386-.279-.761 1.904-3.113 1.365-1.471 2.428-2.507 2.363-2.301-.208.656-3.326 5.852-3.511 5.853-.098 0-.439-.197-.756-.439zM1418.534 1980.203c0-.209 1.545-2.172 4.998-6.35.124-.15.57.093.99.541l.766.815-2.707 2.136c-3.628 2.864-4.047 3.16-4.047 2.858zM2157.828 1940.03c-1.912-3.137-6.82-9.584-9.6-12.609-2.441-2.654-2.962-3.475-2.207-3.475.19 0 .897-.484 1.571-1.077l1.227-1.076 5.993 8.13a3856.57 3856.57 0 0 0 6.799 9.205l.805 1.075-1.692.902-1.691.902zM2413.547 2155.717c-1.384-1.182-1.274-1.294.53-.54.874.364 1.173.678 1.022 1.07-.117.306-.236.55-.264.542-.028-.01-.608-.49-1.288-1.072zM2697.69 2207.696c-.136-.356.014-.536.448-.536.36 0 1.439-.085 2.4-.19l1.746-.19-2.143.72c-1.179.397-2.166.724-2.194.727-.028 0-.144-.236-.257-.53zM2741.927 2202.899c-2.694-.191-2.765-.217-1.25-.452.883-.137 2.29-.358 3.125-.492 1.386-.222 1.517-.177 1.517.517 0 .418-.12.73-.267.695-.148-.036-1.554-.157-3.125-.268z" fill="#aa70b5" stroke-width="2.857"/></g><g fill="#5b3c7e" fill-opacity=".941" stroke="#000" stroke-width="32.325" stroke-linejoin="round"><path d="M506.255 1887.207c-5.802-1.757-19.226-8.279-29.83-14.493-27.766-16.272-34.068-33.06-30.329-80.785 4.22-53.848 18.057-77.178 58.324-98.335 22.475-11.81 31.78-8.986 62.694 19.023l20.832 18.874 2.407 41.277c1.984 34.024 1.136 44.606-4.827 60.22-9.608 25.158-31.531 48.854-49.926 53.964-16.554 4.598-15.042 4.584-29.345.255zM671.371 2177.835c-22.103-5.498-44.83-22.014-54.867-39.874-18.94-33.7-5.315-84.932 28.73-108.031 15.069-10.223 20.598-11.556 47.95-11.556 28.218 0 32.451 1.106 48.487 12.667 24.702 17.808 33.1 33.8 33.446 63.697.233 19.996-1.832 28.255-10.932 43.737-19.074 32.447-56.61 48.366-92.814 39.36zM1065.885 2373.433c-50.63-20.223-78.817-58.652-79.101-107.844-.402-69.699 44.722-119.857 107.828-119.857 43.625 0 80.564 24.663 99.74 66.591 13.528 29.583 12.763 73.249-1.778 101.45-11.685 22.662-46.12 56.206-66.517 64.799-17.877 7.53-31.327 6.381-60.172-5.14zM1459.291 2155.914c-23.446-8.964-43.116-26.032-53.41-46.345-11.156-22.016-12.97-37.546-8.598-73.647 2.741-22.646 5.264-28.83 15.958-39.114 27.595-26.538 80.659-36.437 114.043-21.275 60.949 27.681 76.332 105.958 30.527 155.338-23.316 25.136-68.34 36.58-98.52 25.043zM1761.313 1913.767c-48.202-21.057-71.557-80.505-50.18-127.728 17.404-38.45 45.124-56.569 86.545-56.569 30.452 0 49.264 7.834 69.496 28.94 43.926 45.825 29.275 124.634-28.356 152.532-20.214 9.786-58.387 11.177-77.505 2.825zM2040.115 2061.323c-29.358-18.234-43.761-45.763-39.788-76.047 6.04-46.022 35.94-73.978 79.126-73.978 44.287 0 73.381 24.305 78.203 65.329 4.516 38.424-12.061 69.86-44.643 84.66-21.794 9.9-56.989 9.917-72.898.036zM2318.917 2304.153c-15.912-8.678-22.258-15.308-29.877-31.22-13.08-27.319-15.238-50.384-6.783-72.522 17.133-44.863 81.22-71.052 115.004-46.996 15.419 10.98 36.818 52.296 36.788 71.03-.06 37.833-22.497 68.621-59.96 82.28-29.685 10.825-30.691 10.778-55.172-2.572zM2700.268 2364.357c-17.754-5.918-46.86-37.836-52.038-57.066-11.33-42.08 26.488-88.769 77.095-95.175 15.237-1.93 22.266 0 47.92 13.115 25.185 12.88 31.631 18.328 39.717 33.56 13.95 26.278 11.09 49.683-9.346 76.48-9.387 12.309-20.44 21.9-27.89 24.203-13.531 4.182-67.152 7.652-75.458 4.883zM3046.854 2256.937c-71.765-25.588-55.999-131.487 19.576-131.487 38.215 0 66.47 30.099 66.603 70.949.075 22.945-2.053 26.547-29.473 49.886-21.157 18.008-30.928 19.843-56.706 10.652zM2750.904 1309.688c-21.15-12.897-29.946-27.476-29.946-49.63 0-17.397 1.892-21.844 15.512-36.444 13.814-14.81 17.904-16.807 37.375-18.251 25.665-1.904 43.324 6.917 56.231 28.086 29.141 47.795-30.94 105.65-79.172 76.239zM2891.699 1169.261c-16.794-8.278-29.32-28.602-29.32-47.57 0-33.984 26.439-57.251 61.254-53.906 16.651 1.6 23.005 4.627 35.097 16.72 13.35 13.349 14.766 16.858 14.766 36.595 0 17.71-1.907 23.872-10.102 32.642-20.908 22.376-46.534 27.923-71.695 15.52zM2988.47 997.784c-51.187-33.707-30.03-124.851 28.996-124.908 42.148-.041 71.606 51.747 53.502 94.059-14.731 34.43-54.486 49.295-82.498 30.85zM3061.939 784.352c-24.06-14.671-37.936-43.63-37.936-79.176 0-84.857 80.721-118.975 116.588-49.277 7.93 15.412 10.063 25.824 10.341 50.508.307 27.21-1.077 33.522-11.08 50.54-19.5 33.174-50.544 44.094-77.913 27.405z"/></g></svg>