<?xml version="1.0" encoding="UTF-8" standalone="no"?>
<!-- Generator: Gravit.io -->
<svg xmlns="http://www.w3.org/2000/svg" xmlns:xlink="http://www.w3.org/1999/xlink" style="isolation:isolate" viewBox="0 0 512 512" width="512" height="512"><defs><clipPath id="_clipPath_g7BY5tMYJAURAGW7IqEz8cp2uXhrQLXy"><rect width="512" height="512"/></clipPath></defs><g clip-path="url(#_clipPath_g7BY5tMYJAURAGW7IqEz8cp2uXhrQLXy)"><g style="isolation:isolate"><ellipse vector-effect="non-scaling-stroke" cx="253.50000000000003" cy="255" rx="215.5" ry="220.00000000000006" fill="rgb(93,60,123)"/></g><g style="isolation:isolate"><ellipse vector-effect="non-scaling-stroke" cx="173.05990783410073" cy="234.7757847533634" rx="43.69585253456222" ry="62.64573991031389" fill="rgb(255,255,255)"/><path d="M 165.95 208.632 L 178.183 208.632 C 184.673 208.632 189.942 213.901 189.942 220.391 L 189.942 253.107 C 189.942 259.596 184.673 264.865 178.183 264.865 L 165.95 264.865 C 159.46 264.865 154.191 259.596 154.191 253.107 L 154.191 220.391 C 154.191 213.901 159.46 208.632 165.95 208.632 Z" style="stroke:none;fill:#171717;stroke-miterlimit:10;"/><ellipse vector-effect="non-scaling-stroke" cx="163.6255760368661" cy="221.457399103139" rx="13.406682027649765" ry="14.798206278026896" fill="rgb(255,255,255)"/><ellipse vector-effect="non-scaling-stroke" cx="319.0437788018434" cy="234.7757847533634" rx="43.69585253456222" ry="62.64573991031389" fill="rgb(255,255,255)"/><path d="M 311.934 208.632 L 324.167 208.632 C 330.657 208.632 335.926 213.901 335.926 220.391 L 335.926 253.107 C 335.926 259.596 330.657 264.865 324.167 264.865 L 311.934 264.865 C 305.444 264.865 300.175 259.596 300.175 253.107 L 300.175 220.391 C 300.175 213.901 305.444 208.632 311.934 208.632 Z" style="stroke:none;fill:#171717;stroke-miterlimit:10;"/><ellipse vector-effect="non-scaling-stroke" cx="309.60944700460806" cy="221.457399103139" rx="13.406682027649765" ry="14.798206278026896" fill="rgb(255,255,255)"/></g><g style="isolation:isolate"><rect x="170.081" y="344.776" width="158.894" height="45.381" transform="matrix(1,0,0,1,0,0)" fill="rgb(23,23,23)"/><path d="M 176.062 382.265 L 322.993 382.265 C 326.842 382.265 329.968 385.39 329.968 389.239 L 329.968 406.859 C 329.968 410.709 326.842 413.834 322.993 413.834 L 176.062 413.834 C 172.213 413.834 169.088 410.709 169.088 406.859 L 169.088 389.239 C 169.088 385.39 172.213 382.265 176.062 382.265 Z" style="stroke:none;fill:#9D3838;stroke-miterlimit:10;"/></g><g style="isolation:isolate"><path d=" M 212.726 326.201 C 226.786 310.57 243.344 302.444 249.679 308.067 C 256.014 313.691 249.742 330.947 235.682 346.579 C 221.622 362.211 205.064 370.336 198.729 364.713 C 192.394 359.09 198.666 341.833 212.726 326.201 Z " fill="rgb(127,90,162)"/><path d=" M 280.371 326.201 C 266.311 310.57 249.753 302.444 243.418 308.067 C 237.083 313.691 243.355 330.947 257.415 346.579 C 271.475 362.211 288.033 370.336 294.368 364.713 C 300.703 359.09 294.431 341.833 280.371 326.201 Z " fill="rgb(127,90,162)"/><path d=" M 230.665 344.673 C 230.088 323.718 236.514 306.518 245.007 306.287 C 253.499 306.057 260.862 322.882 261.439 343.837 C 262.016 364.792 255.589 381.992 247.097 382.223 C 238.605 382.454 231.242 365.628 230.665 344.673 Z " fill="rgb(127,90,162)"/></g><g style="isolation:isolate"><path d=" M 126.63 95.526 C 134.995 85.091 148.575 81.99 156.935 88.604 C 165.296 95.219 165.291 109.061 156.926 119.496 C 148.56 129.931 134.98 133.033 126.62 126.418 C 118.259 119.803 118.264 105.961 126.63 95.526 Z " fill="rgb(127,90,162)"/><path d=" M 91.557 140.039 C 97.356 132.806 106.881 130.745 112.815 135.439 C 118.748 140.134 118.857 149.818 113.058 157.051 C 107.259 164.284 97.733 166.346 91.8 161.651 C 85.867 156.957 85.758 147.273 91.557 140.039 Z " fill="rgb(127,90,162)"/></g><g style="isolation:isolate"><ellipse vector-effect="non-scaling-stroke" cx="130.8536866359446" cy="333.92376681614365" rx="16.38594470046081" ry="16.77130044843051" fill="rgb(238,91,91)"/><ellipse vector-effect="non-scaling-stroke" cx="363.23617511520723" cy="333.92376681614365" rx="16.38594470046081" ry="16.77130044843051" fill="rgb(238,91,91)"/></g></g></svg>