<?xml version="1.0" encoding="UTF-8" standalone="no"?>
<!-- Generator: Gravit.io -->
<svg xmlns="http://www.w3.org/2000/svg" xmlns:xlink="http://www.w3.org/1999/xlink" style="isolation:isolate" viewBox="0 0 512 512" width="512" height="512"><defs><clipPath id="_clipPath_OBMLXjvbsr4GrkuTQeizRLpn7sWNGx7O"><rect width="512" height="512"/></clipPath></defs><g clip-path="url(#_clipPath_OBMLXjvbsr4GrkuTQeizRLpn7sWNGx7O)"><g style="isolation:isolate"><path d=" M 152.475 162.338 C 170.031 224.801 182.369 229.732 187.114 260.964 C 191.859 292.195 193.282 362.877 164.337 378.219 Q 135.392 393.56 83.671 370 Q 50.929 303.702 49.98 327.262 C 49.031 350.823 40.016 388.081 58.047 405.067 C 76.078 422.052 93.161 434.654 111.192 438.49 C 129.224 442.325 192.808 429.723 208.467 413.834 C 224.126 397.944 234.09 356.302 239.784 345.891 Q 245.478 335.481 261.612 334.933 L 261.612 214.939 Q 134.918 99.876 152.475 162.338 Z " fill="rgb(52,31,72)"/><path d=" M 356.97 162.338 C 339.413 224.801 327.076 229.732 322.331 260.964 C 317.586 292.195 316.162 362.877 345.107 378.219 Q 374.053 393.56 425.774 370 Q 458.515 303.702 459.464 327.262 C 460.413 350.823 469.429 388.081 451.398 405.067 C 433.366 422.052 416.284 434.654 398.253 438.49 C 380.221 442.325 316.637 429.723 300.978 413.834 C 285.319 397.944 275.355 356.302 269.66 345.891 Q 263.966 335.481 247.833 334.933 L 247.833 214.939 Q 374.527 99.876 356.97 162.338 Z " fill="rgb(52,31,72)"/><path d=" M 132.38 174.367 C 149.937 236.83 162.275 241.761 167.02 272.993 C 171.765 304.224 173.188 374.906 144.243 390.248 Q 115.298 405.589 63.577 382.029 Q 30.835 315.731 29.886 339.291 C 28.937 362.852 19.922 400.11 37.953 417.096 C 55.984 434.081 73.067 446.683 91.098 450.519 C 109.129 454.354 172.714 441.752 188.373 425.862 C 204.031 409.973 213.996 368.331 219.69 357.92 Q 225.384 347.51 241.518 346.962 L 241.518 226.968 Q 114.824 111.904 132.38 174.367 Z " fill="rgb(67,41,91)"/><path d=" M 374.194 174.367 C 356.637 236.83 344.3 241.761 339.554 272.993 C 334.809 304.224 333.386 374.906 362.331 390.248 Q 391.276 405.589 442.998 382.029 Q 475.739 315.731 476.688 339.291 C 477.637 362.852 486.652 400.11 468.621 417.096 C 450.59 434.081 433.507 446.683 415.476 450.519 C 397.445 454.354 333.86 441.752 318.202 425.862 C 302.543 409.973 292.578 368.331 286.884 357.92 Q 281.19 347.51 265.056 346.962 L 265.056 226.968 Q 391.751 111.904 374.194 174.367 Z " fill="rgb(67,41,91)"/><path d=" M 372.503 170.116 C 351.801 242.29 337.253 247.988 331.658 284.074 C 326.063 320.161 324.384 401.831 358.515 419.558 Q 392.645 437.284 453.632 410.061 Q 492.239 333.456 493.358 360.679 C 494.477 387.903 505.108 430.953 483.846 450.579 C 462.585 470.205 442.442 484.767 421.18 489.198 C 399.919 493.63 324.944 479.069 306.48 460.709 C 288.016 442.349 276.266 394.234 269.552 382.205 Q 262.838 370.176 243.814 369.543 L 243.814 230.894 Q 393.205 97.943 372.503 170.116 Z " fill="rgb(93,60,123)"/><path d=" M 133.497 170.116 C 154.199 242.29 168.747 247.988 174.342 284.074 C 179.937 320.161 181.616 401.831 147.485 419.558 Q 113.355 437.284 52.368 410.061 Q 13.761 333.456 12.642 360.679 C 11.523 387.903 0.892 430.953 22.154 450.579 C 43.415 470.205 63.558 484.767 84.82 489.198 C 106.081 493.63 181.056 479.069 199.52 460.709 C 217.984 442.349 229.734 394.234 236.448 382.205 Q 243.162 370.176 262.186 369.543 L 262.186 230.894 Q 112.795 97.943 133.497 170.116 Z " fill="rgb(93,60,123)"/><ellipse vector-effect="non-scaling-stroke" cx="253.57411764705893" cy="175.18116322074448" rx="124.5835294117647" ry="141.18116322074454" fill="rgb(93,60,123)"/></g><g style="isolation:isolate"><ellipse vector-effect="non-scaling-stroke" cx="207.0705882352938" cy="162.2026257946224" rx="25.261176470588254" ry="40.201811051646985" fill="rgb(255,255,255)"/><path d="M 203.325 145.425 L 209.668 145.425 C 213.621 145.425 216.831 148.635 216.831 152.588 L 216.831 174.35 C 216.831 178.303 213.621 181.512 209.668 181.512 L 203.325 181.512 C 199.372 181.512 196.162 178.303 196.162 174.35 L 196.162 152.588 C 196.162 148.635 199.372 145.425 203.325 145.425 Z" style="stroke:none;fill:#171717;stroke-miterlimit:10;"/><ellipse vector-effect="non-scaling-stroke" cx="201.61647058823527" cy="153.65578407498077" rx="7.750588235294117" ry="9.496490799601645" fill="rgb(255,255,255)"/><ellipse vector-effect="non-scaling-stroke" cx="291.46588235294126" cy="162.2026257946224" rx="25.261176470588225" ry="40.201811051646985" fill="rgb(255,255,255)"/><path d="M 287.72 145.425 L 294.064 145.425 C 298.017 145.425 301.226 148.635 301.226 152.588 L 301.226 174.35 C 301.226 178.303 298.017 181.512 294.064 181.512 L 287.72 181.512 C 283.767 181.512 280.558 178.303 280.558 174.35 L 280.558 152.588 C 280.558 148.635 283.767 145.425 287.72 145.425 Z" style="stroke:none;fill:#171717;stroke-miterlimit:10;"/><ellipse vector-effect="non-scaling-stroke" cx="286.01176470588234" cy="153.65578407498077" rx="7.750588235294117" ry="9.496490799601645" fill="rgb(255,255,255)"/></g><g style="isolation:isolate"><rect x="205.348" y="232.793" width="91.859" height="29.123" transform="matrix(1,0,0,1,0,0)" fill="rgb(23,23,23)"/><path d="M 209.022 256.851 L 293.533 256.851 C 295.878 256.851 297.781 258.755 297.781 261.099 L 297.781 272.862 C 297.781 275.207 295.878 277.11 293.533 277.11 L 209.022 277.11 C 206.678 277.11 204.774 275.207 204.774 272.862 L 204.774 261.099 C 204.774 258.755 206.678 256.851 209.022 256.851 Z" style="stroke:none;fill:#9D3838;stroke-miterlimit:10;"/></g><g style="isolation:isolate"><path d=" M 230.002 220.873 C 238.13 210.842 247.703 205.628 251.365 209.236 C 255.028 212.845 251.402 223.919 243.273 233.95 C 235.145 243.982 225.572 249.196 221.91 245.587 C 218.248 241.979 221.874 230.905 230.002 220.873 Z " fill="rgb(127,90,162)"/><path d=" M 269.109 220.873 C 260.98 210.842 251.408 205.628 247.745 209.236 C 244.083 212.845 247.709 223.919 255.837 233.95 C 263.966 243.982 273.538 249.196 277.2 245.587 C 280.863 241.979 277.237 230.905 269.109 220.873 Z " fill="rgb(127,90,162)"/><path d=" M 240.373 232.727 C 240.039 219.28 243.754 208.242 248.664 208.094 C 253.574 207.946 257.83 218.743 258.164 232.191 C 258.497 245.638 254.782 256.676 249.872 256.824 C 244.963 256.972 240.706 246.175 240.373 232.727 Z " fill="rgb(127,90,162)"/></g><g style="isolation:isolate"><path d=" M 180.229 72.842 C 185.065 66.145 192.916 64.155 197.749 68.4 C 202.582 72.645 202.58 81.527 197.743 88.224 C 192.907 94.92 185.056 96.911 180.223 92.666 C 175.39 88.421 175.392 79.538 180.229 72.842 Z " fill="rgb(127,90,162)"/><path d=" M 159.952 101.407 C 163.305 96.765 168.812 95.443 172.242 98.455 C 175.672 101.468 175.735 107.682 172.383 112.324 C 169.03 116.966 163.523 118.289 160.093 115.276 C 156.663 112.264 156.6 106.049 159.952 101.407 Z " fill="rgb(127,90,162)"/></g><g style="isolation:isolate"><ellipse vector-effect="non-scaling-stroke" cx="182.6705882352941" cy="225.82911415195346" rx="9.472941176470584" ry="10.762689572881868" fill="rgb(238,91,91)"/><ellipse vector-effect="non-scaling-stroke" cx="317.0141176470587" cy="225.82911415195346" rx="9.472941176470613" ry="10.762689572881868" fill="rgb(238,91,91)"/></g></g></svg>